<svg version="1.1" id="Layer_1" xmlns="http://www.w3.org/2000/svg" xmlns:xlink="http://www.w3.org/1999/xlink" x="0px" y="0px"
	 width="100%" viewBox="0 0 2046 2048" enable-background="new 0 0 2046 2048" xml:space="preserve">
<path fill="#EFEFEF" opacity="1" stroke="none" 
	d="
M968.000000,0.999994 
	C1006.020935,1.000000 1044.041870,1.000000 1082.178711,1.359229 
	C1083.455200,2.136995 1084.590576,2.823261 1085.779907,2.935022 
	C1117.750122,5.939192 1149.859009,7.868534 1181.674683,12.038235 
	C1263.085815,22.707848 1341.715942,44.226250 1417.658936,75.458855 
	C1507.139160,112.258774 1588.793457,162.175995 1664.044434,222.781830 
	C1665.557983,224.000916 1666.778076,225.584549 1667.800293,227.077316 
	C1607.646729,286.803864 1547.668335,346.292419 1488.052246,406.141785 
	C1424.142822,470.301422 1348.749146,514.831421 1261.934937,540.339233 
	C1199.815430,558.591248 1136.163696,566.484253 1071.703003,568.677612 
	C1014.517090,570.623352 957.426941,569.053894 900.558655,562.099426 
	C851.640076,556.117004 803.705017,545.934204 757.316040,529.010376 
	C695.345276,506.401947 639.635071,473.369446 591.670044,427.980743 
	C565.294556,403.021942 539.917114,377.004608 514.212280,351.341797 
	C471.407623,308.607117 428.701538,265.773712 386.149200,222.709534 
	C421.302155,194.368866 457.696747,168.345963 495.957916,144.936630 
	C617.660034,70.475555 749.579468,25.654558 891.114441,8.963507 
	C915.400757,6.099447 939.870850,4.799522 964.247925,2.683254 
	C965.537598,2.571286 966.751038,1.581252 968.000000,0.999994 
z"/>
<path fill="#EFEFEF" opacity="1.000000" stroke="none" 
	d="
M1.000007,1091.000000 
	C1.000000,1046.979126 1.000000,1002.958191 1.351211,958.748901 
	C2.737369,953.931274 4.191415,949.349182 4.717389,944.662842 
	C5.719516,935.734009 6.126060,926.740051 6.895260,917.783142 
	C10.703026,873.443420 17.420839,829.546875 27.075642,786.102661 
	C43.060322,714.175537 66.959213,644.979065 99.035263,578.646179 
	C130.248688,514.097168 168.517899,453.958740 213.262238,397.718140 
	C214.511536,398.485413 215.466003,399.148804 216.277023,399.956299 
	C246.380981,429.927490 276.480743,459.902924 306.561707,489.897186 
	C342.542328,525.774048 378.582672,561.591370 414.452087,597.579102 
	C444.632965,627.859375 469.846558,661.913269 490.312866,699.430847 
	C524.778625,762.611328 542.961792,830.783997 551.961365,901.746704 
	C558.536804,953.595154 559.869446,1005.682983 559.306580,1057.866699 
	C558.640503,1119.616699 554.188721,1180.963135 541.036438,1241.490356 
	C521.848267,1329.794800 482.581085,1407.798096 420.181732,1473.280273 
	C378.477844,1517.044312 335.024475,1559.140381 292.385956,1602.014893 
	C270.552887,1623.968872 248.790070,1645.992798 226.691284,1667.845947 
	C223.849014,1664.617920 221.284058,1661.550537 218.776794,1658.436890 
	C149.038269,1571.828003 94.319496,1476.756470 57.281071,1371.729004 
	C33.490929,1304.268677 17.399067,1234.986450 8.899494,1163.991089 
	C6.148859,1141.015503 4.764222,1117.877075 2.661376,1094.821655 
	C2.541578,1093.508179 1.573365,1092.272095 1.000007,1091.000000 
z"/>
<path fill="#EFEFEF" opacity="1.000000" stroke="none" 
	d="
M2047.000000,971.000000 
	C2047.000000,1006.687561 2047.000000,1042.375122 2046.615723,1078.277344 
	C2045.941040,1079.747437 2045.503418,1080.988892 2045.382080,1082.260620 
	C2042.267456,1114.903076 2039.974365,1147.646851 2035.916382,1180.170776 
	C2029.579346,1230.959595 2018.258667,1280.773804 2003.415771,1329.765747 
	C1968.865112,1443.805664 1914.583740,1547.665649 1842.052368,1642.077637 
	C1836.305176,1649.558594 1830.045288,1656.645508 1823.934326,1663.593750 
	C1817.725464,1657.140015 1811.615967,1650.997559 1805.484497,1644.877319 
	C1753.241455,1592.729370 1701.116821,1540.462036 1648.708862,1488.480469 
	C1608.948853,1449.044067 1576.302368,1404.577759 1551.909180,1354.125366 
	C1517.527588,1283.013916 1501.645386,1207.216675 1496.251221,1129.029907 
	C1493.856567,1094.319580 1493.164062,1059.451050 1492.883789,1024.644897 
	C1492.428833,968.141724 1493.712769,911.676941 1501.962402,855.608643 
	C1507.393677,818.694885 1516.593506,782.840454 1531.523315,748.561768 
	C1552.427979,700.565369 1582.757568,658.993164 1619.384277,622.023682 
	C1685.880493,554.904907 1752.834351,488.239319 1819.635254,421.422607 
	C1825.969971,415.086304 1832.574097,409.019135 1839.278809,403.081085 
	C1846.569458,412.807770 1853.781616,422.174652 1860.677124,431.769104 
	C1941.330200,543.989380 1996.245361,667.576538 2024.475586,802.939148 
	C2032.706909,842.407715 2038.870239,882.182373 2042.142212,922.378174 
	C2043.357666,937.310913 2044.211670,952.272888 2045.348267,967.212585 
	C2045.446899,968.509399 2046.428467,969.739136 2047.000000,971.000000 
z"/>
<path fill="#EFEFEF" opacity="1.000000" stroke="none" 
	d="
M1086.000000,2049.000000 
	C1046.312500,2049.000000 1006.624878,2049.000000 966.732544,2048.617676 
	C965.113037,2047.921753 963.709167,2047.398926 962.282166,2047.325317 
	C902.772278,2044.259888 843.966492,2036.145508 785.858093,2022.930786 
	C708.227844,2005.276489 633.960938,1978.418579 563.046814,1942.185303 
	C507.690308,1913.901001 456.108063,1879.768799 406.611633,1842.339966 
	C404.924683,1841.064209 403.485565,1839.460815 402.272430,1837.962891 
	C440.404816,1800.068115 478.042419,1762.065796 516.033875,1724.420654 
	C547.867004,1692.877686 579.305176,1660.866333 612.389832,1630.674927 
	C650.192688,1596.177856 693.396240,1569.520386 740.871826,1550.019531 
	C799.060974,1526.118042 860.107910,1515.224243 922.480774,1512.395386 
	C972.721924,1510.116943 1023.085510,1509.991211 1073.395752,1509.944458 
	C1121.086426,1509.900024 1168.647217,1512.846191 1215.752441,1521.007812 
	C1259.850952,1528.648315 1302.135498,1541.871094 1342.112427,1562.139893 
	C1390.263794,1586.553467 1432.793091,1618.889282 1471.128906,1656.523193 
	C1531.659058,1715.944946 1591.355347,1776.215942 1651.231689,1836.430054 
	C1620.888672,1860.384277 1589.587036,1882.427124 1557.028931,1902.668213 
	C1437.848389,1976.761719 1308.331421,2021.801147 1169.361694,2039.844116 
	C1142.955933,2043.272461 1116.303223,2044.793213 1089.772949,2047.285034 
	C1088.473145,2047.407104 1087.255737,2048.408203 1086.000000,2049.000000 
z"/>
<path fill="#000000" opacity="0" stroke="none" 
	d="
M401.930908,1838.010132 
	C403.485565,1839.460815 404.924683,1841.064209 406.611633,1842.339966 
	C456.108063,1879.768799 507.690308,1913.901001 563.046814,1942.185303 
	C633.960938,1978.418579 708.227844,2005.276489 785.858093,2022.930786 
	C843.966492,2036.145508 902.772278,2044.259888 962.282166,2047.325317 
	C963.709167,2047.398926 965.113037,2047.921753 966.263855,2048.617676 
	C644.406494,2049.000000 322.812988,2049.000000 1.000000,2049.000000 
	C1.000000,1729.979126 1.000000,1410.958130 1.000007,1091.468628 
	C1.573365,1092.272095 2.541578,1093.508179 2.661376,1094.821655 
	C4.764222,1117.877075 6.148859,1141.015503 8.899494,1163.991089 
	C17.399067,1234.986450 33.490929,1304.268677 57.281071,1371.729004 
	C94.319496,1476.756470 149.038269,1571.828003 218.776794,1658.436890 
	C221.284058,1661.550537 223.849014,1664.617920 226.691330,1668.195679 
	C236.467224,1679.768677 245.617767,1691.148682 255.487869,1701.865845 
	C269.311157,1716.875366 283.670441,1731.391479 297.871460,1746.505737 
	C298.261597,1752.703125 308.747864,1762.774658 315.073059,1763.467285 
	C339.041595,1787.935303 364.888153,1809.817383 391.266724,1831.088257 
	C394.548401,1833.734253 398.363190,1835.718994 401.930908,1838.010132 
z"/>
<path fill="#000000" opacity="0" stroke="none" 
	d="
M1086.468628,2049.000000 
	C1087.255737,2048.408203 1088.473145,2047.407104 1089.772949,2047.285034 
	C1116.303223,2044.793213 1142.955933,2043.272461 1169.361694,2039.844116 
	C1308.331421,2021.801147 1437.848389,1976.761719 1557.028931,1902.668213 
	C1589.587036,1882.427124 1620.888672,1860.384277 1651.569214,1836.431030 
	C1658.602417,1831.022827 1665.313721,1826.137085 1671.608765,1820.763794 
	C1684.604126,1809.671509 1697.495605,1798.450195 1710.193726,1787.019653 
	C1716.825317,1781.050049 1722.956299,1774.524292 1729.689941,1768.179688 
	C1737.795166,1767.743042 1746.510254,1758.739380 1747.588867,1750.221191 
	C1754.621460,1743.228149 1761.542114,1736.538086 1768.008423,1729.434570 
	C1783.185791,1712.761353 1798.254517,1695.985962 1813.122314,1679.036987 
	C1817.201172,1674.386841 1820.413574,1668.976685 1824.023682,1663.915527 
	C1830.045288,1656.645508 1836.305176,1649.558594 1842.052368,1642.077637 
	C1914.583740,1547.665649 1968.865112,1443.805664 2003.415771,1329.765747 
	C2018.258667,1280.773804 2029.579346,1230.959595 2035.916382,1180.170776 
	C2039.974365,1147.646851 2042.267456,1114.903076 2045.382080,1082.260620 
	C2045.503418,1080.988892 2045.941040,1079.747437 2046.615723,1078.745850 
	C2047.000000,1402.260132 2047.000000,1725.520142 2047.000000,2049.000000 
	C1726.979126,2049.000000 1406.958130,2049.000000 1086.468628,2049.000000 
z"/>
<path fill="#000000" opacity="0" stroke="none" 
	d="
M212.900543,397.681396 
	C168.517899,453.958740 130.248688,514.097168 99.035263,578.646179 
	C66.959213,644.979065 43.060322,714.175537 27.075642,786.102661 
	C17.420839,829.546875 10.703026,873.443420 6.895260,917.783142 
	C6.126060,926.740051 5.719516,935.734009 4.717389,944.662842 
	C4.191415,949.349182 2.737369,953.931274 1.351211,958.280273 
	C1.000000,639.072510 1.000000,320.145050 1.000000,1.000000 
	C323.020874,1.000000 645.041748,1.000000 967.531372,0.999994 
	C966.751038,1.581252 965.537598,2.571286 964.247925,2.683254 
	C939.870850,4.799522 915.400757,6.099447 891.114441,8.963507 
	C749.579468,25.654558 617.660034,70.475555 495.957916,144.936630 
	C457.696747,168.345963 421.302155,194.368866 385.804901,222.726868 
	C371.410339,234.650009 357.217255,245.908585 343.791290,258.017700 
	C329.118744,271.251129 315.155945,285.271454 300.494019,298.957184 
	C296.298615,298.135742 294.316010,300.875641 292.364014,303.218689 
	C288.636383,307.693146 281.936676,310.264984 282.440979,317.837891 
	C280.524078,319.380676 278.801758,320.720490 277.368347,322.319305 
	C263.481476,337.808685 249.458572,353.182220 235.860718,368.922455 
	C227.847641,378.198029 220.530594,388.074921 212.900543,397.681396 
z"/>
<path fill="#000000" opacity="0" stroke="none" 
	d="
M2047.000000,970.531372 
	C2046.428467,969.739136 2045.446899,968.509399 2045.348267,967.212585 
	C2044.211670,952.272888 2043.357666,937.310913 2042.142212,922.378174 
	C2038.870239,882.182373 2032.706909,842.407715 2024.475586,802.939148 
	C1996.245361,667.576538 1941.330200,543.989380 1860.677124,431.769104 
	C1853.781616,422.174652 1846.569458,412.807770 1839.261353,402.740845 
	C1822.651489,382.245361 1806.475952,362.182251 1789.833252,342.514404 
	C1782.008179,333.266998 1773.284302,324.780090 1764.987183,315.552155 
	C1764.214966,313.138519 1763.802124,310.834473 1762.542725,309.171509 
	C1760.662354,306.688599 1757.653198,304.974854 1756.090820,302.357117 
	C1753.900513,298.686890 1750.932251,297.728882 1746.998291,297.580627 
	C1724.208008,276.378174 1701.588379,255.438721 1678.828613,234.652740 
	C1675.614624,231.717392 1671.716553,229.531128 1668.135010,226.998138 
	C1666.778076,225.584549 1665.557983,224.000916 1664.044434,222.781830 
	C1588.793457,162.175995 1507.139160,112.258774 1417.658936,75.458855 
	C1341.715942,44.226250 1263.085815,22.707848 1181.674683,12.038235 
	C1149.859009,7.868534 1117.750122,5.939192 1085.779907,2.935022 
	C1084.590576,2.823261 1083.455200,2.136995 1082.647339,1.359229 
	C1404.260620,1.000000 1725.521362,1.000000 2047.000000,1.000000 
	C2047.000000,324.020874 2047.000000,647.041748 2047.000000,970.531372 
z"/>
<path fill="#373D50" opacity="1.000000" stroke="none" 
	d="
M1667.800293,227.077332 
	C1671.716553,229.531128 1675.614624,231.717392 1678.828613,234.652740 
	C1701.588379,255.438721 1724.208008,276.378174 1746.872803,297.906769 
	C1741.156128,303.958038 1735.389404,309.319794 1729.732544,314.795166 
	C1717.911011,326.237518 1706.142944,337.735046 1694.361328,349.218719 
	C1680.454956,362.773468 1666.539917,376.319366 1652.660034,389.901154 
	C1619.739380,422.114929 1586.837891,454.348297 1553.926880,486.571991 
	C1550.056519,490.361572 1546.194092,494.159668 1542.295166,497.919708 
	C1529.183228,510.564819 1516.043701,523.181335 1502.941040,535.835876 
	C1496.640503,541.920898 1490.398438,548.066467 1483.615112,554.687012 
	C1479.422852,550.295410 1475.561157,546.180298 1471.618652,542.144104 
	C1468.724487,539.181030 1465.985596,538.699097 1462.890747,542.255310 
	C1459.277100,546.407837 1455.243286,550.195923 1451.374512,554.125183 
	C1431.588135,574.220520 1411.807495,594.321655 1392.003540,614.399658 
	C1363.957886,642.833313 1335.894409,671.249146 1307.836914,699.671082 
	C1303.697632,703.864136 1303.660889,705.215637 1307.986572,709.454346 
	C1322.114868,723.298706 1336.320435,737.064270 1350.408569,750.949219 
	C1353.498901,753.995056 1356.024536,753.639709 1358.847046,750.691162 
	C1368.366577,740.746704 1377.882080,730.796326 1387.539673,720.986328 
	C1412.619995,695.509949 1437.742065,670.074524 1462.912109,644.686646 
	C1479.686279,627.767395 1496.582886,610.969482 1513.397217,594.089905 
	C1517.162720,590.309937 1517.120239,586.683289 1513.462646,582.949768 
	C1509.751099,579.161072 1506.055298,575.356873 1502.352661,571.559448 
	C1502.967285,572.232178 1503.582031,572.904846 1504.196777,573.577515 
	C1512.791260,563.891479 1521.238892,554.069580 1530.030762,544.566101 
	C1536.135742,537.966736 1542.621216,531.708679 1549.100464,525.468201 
	C1562.513062,512.549927 1576.134766,499.847839 1589.482666,486.863617 
	C1601.824585,474.858002 1613.811890,462.487640 1626.155884,450.484222 
	C1638.871338,438.119720 1651.905396,426.083344 1664.660767,413.759338 
	C1678.504272,400.384003 1692.183350,386.838593 1705.940918,373.374298 
	C1724.260864,355.444702 1742.584106,337.518463 1760.918091,319.603088 
	C1762.217407,318.333282 1763.615479,317.164398 1764.967651,315.948608 
	C1773.284302,324.780090 1782.008179,333.266998 1789.833252,342.514404 
	C1806.475952,362.182251 1822.651489,382.245361 1839.035889,402.486755 
	C1832.574097,409.019135 1825.969971,415.086304 1819.635254,421.422607 
	C1752.834351,488.239319 1685.880493,554.904907 1619.384277,622.023682 
	C1582.757568,658.993164 1552.427979,700.565369 1531.523315,748.561768 
	C1516.593506,782.840454 1507.393677,818.694885 1501.962402,855.608643 
	C1493.712769,911.676941 1492.428833,968.141724 1492.883789,1024.644897 
	C1493.164062,1059.451050 1493.856567,1094.319580 1496.251221,1129.029907 
	C1501.645386,1207.216675 1517.527588,1283.013916 1551.909180,1354.125366 
	C1576.302368,1404.577759 1608.948853,1449.044067 1648.708862,1488.480469 
	C1701.116821,1540.462036 1753.241455,1592.729370 1805.484497,1644.877319 
	C1811.615967,1650.997559 1817.725464,1657.140015 1823.934326,1663.593750 
	C1820.413574,1668.976685 1817.201172,1674.386841 1813.122314,1679.036987 
	C1798.254517,1695.985962 1783.185791,1712.761353 1768.008423,1729.434570 
	C1761.542114,1736.538086 1754.621460,1743.228149 1747.269897,1750.028320 
	C1732.288086,1735.002808 1717.976807,1720.023438 1703.591553,1705.115234 
	C1683.485352,1684.278442 1663.323364,1663.495239 1643.186035,1642.688354 
	C1624.337402,1623.213013 1605.519287,1603.708252 1586.628418,1584.274048 
	C1578.422974,1575.832764 1569.998535,1567.604126 1561.796631,1559.159546 
	C1543.481323,1540.302856 1525.207031,1521.405884 1506.993286,1502.451294 
	C1500.684692,1495.885986 1494.604126,1489.101318 1487.900513,1481.856079 
	C1491.543579,1478.448853 1495.152222,1475.063477 1498.773071,1471.691040 
	C1502.914795,1467.833374 1503.070312,1463.717407 1499.297729,1460.060059 
	C1490.071655,1451.115234 1480.784912,1442.230591 1471.691895,1433.152100 
	C1426.406494,1387.938232 1381.176880,1342.668579 1335.924683,1297.421387 
	C1330.963867,1292.461304 1328.907471,1292.562500 1323.965576,1297.534302 
	C1311.122437,1310.455200 1298.233154,1323.330444 1285.315186,1336.176514 
	C1280.832275,1340.634399 1280.757690,1344.282715 1285.366821,1348.864258 
	C1339.808716,1402.980591 1394.256104,1457.091187 1448.707275,1511.197998 
	C1452.578613,1515.044922 1455.328735,1515.100586 1459.289917,1511.153564 
	C1462.936523,1507.520142 1466.385620,1503.688599 1470.318237,1499.524658 
	C1472.110229,1501.799072 1473.278320,1503.570557 1474.725830,1505.072876 
	C1486.194580,1516.975830 1497.714355,1528.829346 1509.222778,1540.694092 
	C1520.443726,1552.262573 1531.692627,1563.804077 1542.888672,1575.396851 
	C1560.569824,1593.704468 1578.213745,1612.048096 1595.879395,1630.370728 
	C1613.740479,1648.895630 1631.578979,1667.442383 1649.485474,1685.923218 
	C1659.879150,1696.650391 1670.416870,1707.237915 1680.837280,1717.939087 
	C1696.392212,1733.913452 1711.903442,1749.930542 1727.421387,1765.940796 
	C1728.111572,1766.652832 1728.685425,1767.477539 1729.313477,1768.249756 
	C1722.956299,1774.524292 1716.825317,1781.050049 1710.193726,1787.019653 
	C1697.495605,1798.450195 1684.604126,1809.671509 1671.608765,1820.763794 
	C1665.313721,1826.137085 1658.602417,1831.022827 1651.742188,1836.128540 
	C1591.355347,1776.215942 1531.659058,1715.944946 1471.128906,1656.523193 
	C1432.793091,1618.889282 1390.263794,1586.553467 1342.112427,1562.139893 
	C1302.135498,1541.871094 1259.850952,1528.648315 1215.752441,1521.007812 
	C1168.647217,1512.846191 1121.086426,1509.900024 1073.395752,1509.944458 
	C1023.085510,1509.991211 972.721924,1510.116943 922.480774,1512.395386 
	C860.107910,1515.224243 799.060974,1526.118042 740.871826,1550.019531 
	C693.396240,1569.520386 650.192688,1596.177856 612.389832,1630.674927 
	C579.305176,1660.866333 547.867004,1692.877686 516.033875,1724.420654 
	C478.042419,1762.065796 440.404816,1800.068115 402.272400,1837.962891 
	C398.363190,1835.718994 394.548401,1833.734253 391.266724,1831.088257 
	C364.888153,1809.817383 339.041595,1787.935303 315.418945,1763.373047 
	C316.304718,1762.582275 317.147430,1762.300293 317.699524,1761.734741 
	C326.943848,1752.262451 336.096252,1742.700073 345.383179,1733.270020 
	C355.490601,1723.006714 365.713104,1712.856689 375.889648,1702.661621 
	C387.875488,1690.653809 399.859283,1678.644165 411.855316,1666.646729 
	C463.575745,1614.920166 515.299622,1563.197021 567.028931,1511.479370 
	C568.286499,1510.221924 569.624084,1509.044678 570.827698,1507.920410 
	C571.489319,1508.286377 571.827332,1508.389160 572.049500,1508.609009 
	C575.365845,1511.890137 578.669067,1515.184448 581.971191,1518.479980 
	C587.026611,1523.525757 588.012512,1523.606079 592.827332,1518.648926 
	C600.470459,1510.780151 607.995056,1502.796509 615.607727,1494.897949 
	C634.028625,1475.785645 652.476868,1456.699585 670.902954,1437.592285 
	C679.162659,1429.027222 687.396179,1420.436890 695.640686,1411.857056 
	C712.103088,1394.724976 728.551636,1377.579590 745.035889,1360.468506 
	C749.238159,1356.106567 749.360962,1354.805664 745.147705,1350.677612 
	C731.491211,1337.297363 717.809631,1323.942383 704.097046,1310.619629 
	C700.164612,1306.798950 696.366882,1306.939941 692.569763,1310.963135 
	C682.215149,1321.934326 671.932800,1332.973877 661.550110,1343.918335 
	C653.454651,1352.451782 645.250427,1360.881958 637.096741,1369.360229 
	C620.050598,1387.085205 603.054749,1404.859131 585.945862,1422.523438 
	C570.896423,1438.061768 555.731689,1453.488403 540.594177,1468.941162 
	C536.748474,1472.867065 536.848816,1475.588989 540.992432,1479.281372 
	C545.042114,1482.890259 549.015015,1486.585327 553.343445,1490.536255 
	C551.571655,1492.158569 550.171448,1493.345337 548.877869,1494.638672 
	C466.395264,1577.105835 383.920258,1659.580444 301.455109,1742.064941 
	C300.170532,1743.349976 299.015747,1744.764648 297.800354,1746.118774 
	C283.670441,1731.391479 269.311157,1716.875366 255.487869,1701.865845 
	C245.617767,1691.148682 236.467224,1679.768677 226.995544,1668.334961 
	C248.790070,1645.992798 270.552887,1623.968872 292.385956,1602.014893 
	C335.024475,1559.140381 378.477844,1517.044312 420.181732,1473.280273 
	C482.581085,1407.798096 521.848267,1329.794800 541.036438,1241.490356 
	C554.188721,1180.963135 558.640503,1119.616699 559.306580,1057.866699 
	C559.869446,1005.682983 558.536804,953.595154 551.961365,901.746704 
	C542.961792,830.783997 524.778625,762.611328 490.312866,699.430847 
	C469.846558,661.913269 444.632965,627.859375 414.452087,597.579102 
	C378.582672,561.591370 342.542328,525.774048 306.561707,489.897186 
	C276.480743,459.902924 246.380981,429.927490 216.277023,399.956299 
	C215.466003,399.148804 214.511536,398.485413 213.262238,397.718140 
	C220.530594,388.074921 227.847641,378.198029 235.860718,368.922455 
	C249.458572,353.182220 263.481476,337.808685 277.368347,322.319305 
	C278.801758,320.720490 280.524078,319.380676 282.772949,318.000488 
	C284.748871,319.065216 286.218201,319.899139 287.355194,321.058899 
	C296.326263,330.209778 305.098175,339.559601 314.189545,348.588226 
	C332.829773,367.099762 351.744415,385.335449 370.344330,403.886993 
	C426.031586,459.429443 481.610443,515.080627 537.280518,570.640320 
	C540.306091,573.659912 543.776550,576.233704 547.039917,579.014954 
	C545.674500,580.497070 545.577209,580.839905 545.357727,581.062134 
	C542.080261,584.382141 538.771667,587.671570 535.500610,590.997864 
	C531.614197,594.949890 531.603699,598.100220 535.561157,602.054810 
	C573.169739,639.635986 610.756042,677.239563 648.430237,714.754883 
	C662.713806,728.978333 677.213135,742.985107 691.605957,757.098999 
	C695.878418,761.288574 698.162842,761.310974 702.426270,757.055237 
	C715.516907,743.987976 728.595764,730.908936 741.673035,717.828308 
	C746.286072,713.214050 746.193054,709.700012 741.549011,705.219543 
	C732.007080,696.013672 722.413635,686.857422 713.029236,677.492554 
	C670.802429,635.353577 628.643433,593.146851 586.453796,550.970703 
	C582.181152,546.699402 579.820496,546.654236 575.648254,550.889709 
	C572.027771,554.565063 568.526245,558.357483 564.896606,562.177734 
	C563.227661,560.631592 561.976624,559.547241 560.809021,558.379456 
	C546.450684,544.019531 532.164368,529.586975 517.733948,515.299927 
	C508.277222,505.937134 498.484833,496.912201 489.068665,487.509735 
	C427.636292,426.166351 366.264191,364.762604 304.883942,303.367035 
	C303.481049,301.963776 302.214111,300.424591 300.883789,298.948792 
	C315.155945,285.271454 329.118744,271.251129 343.791290,258.017700 
	C357.217255,245.908585 371.410339,234.650009 385.609650,222.999252 
	C428.701538,265.773712 471.407623,308.607117 514.212280,351.341797 
	C539.917114,377.004608 565.294556,403.021942 591.670044,427.980743 
	C639.635071,473.369446 695.345276,506.401947 757.316040,529.010376 
	C803.705017,545.934204 851.640076,556.117004 900.558655,562.099426 
	C957.426941,569.053894 1014.517090,570.623352 1071.703003,568.677612 
	C1136.163696,566.484253 1199.815430,558.591248 1261.934937,540.339233 
	C1348.749146,514.831421 1424.142822,470.301422 1488.052246,406.141785 
	C1547.668335,346.292419 1607.646729,286.803864 1667.800293,227.077332 
M709.000000,1200.500000 
	C709.000000,1212.766602 709.000000,1225.033203 709.000000,1237.806641 
	C711.466492,1237.806641 713.260742,1237.806641 715.055054,1237.806641 
	C761.214966,1237.806641 807.375122,1237.731201 853.534302,1237.915894 
	C858.497559,1237.935791 859.995544,1236.773560 859.990051,1231.590576 
	C859.841248,1091.277954 859.871216,950.965271 859.871216,810.652527 
	C859.871216,808.888977 859.871216,807.125366 859.871216,805.307373 
	C809.220398,805.307373 759.324829,805.307373 709.000000,805.307373 
	C709.000000,936.938477 709.000000,1068.219238 709.000000,1200.500000 
M1318.531128,865.982056 
	C1201.519287,798.422668 1084.507568,730.863342 967.052734,663.048157 
	C941.893005,706.621460 916.909485,749.889465 891.784973,793.401733 
	C1015.000244,864.539062 1137.865845,935.474365 1261.005981,1006.568298 
	C1286.225220,962.880432 1311.123047,919.749329 1336.202026,876.304443 
	C1330.325806,872.839966 1324.763428,869.560486 1318.531128,865.982056 
M954.572510,1357.912842 
	C958.709290,1365.029175 962.846069,1372.145386 967.118164,1379.494507 
	C1090.518433,1308.246216 1213.249268,1237.384277 1336.228638,1166.378906 
	C1310.973999,1122.643921 1286.041992,1079.467651 1260.987793,1036.079834 
	C1137.688477,1107.267212 1014.939575,1178.136719 891.848572,1249.203735 
	C912.796753,1285.533569 933.486084,1321.414551 954.572510,1357.912842 
z"/>
<path fill="#FF4B97" opacity="1" stroke="none" 
	d="
M297.871460,1746.505737 
	C299.015747,1744.764648 300.170532,1743.349976 301.455109,1742.064941 
	C383.920258,1659.580444 466.395264,1577.105835 548.877869,1494.638672 
	C550.171448,1493.345337 551.571655,1492.158569 553.343445,1490.536255 
	C549.015015,1486.585327 545.042114,1482.890259 540.992432,1479.281372 
	C536.848816,1475.588989 536.748474,1472.867065 540.594177,1468.941162 
	C555.731689,1453.488403 570.896423,1438.061768 585.945862,1422.523438 
	C603.054749,1404.859131 620.050598,1387.085205 637.096741,1369.360229 
	C645.250427,1360.881958 653.454651,1352.451782 661.550110,1343.918335 
	C671.932800,1332.973877 682.215149,1321.934326 692.569763,1310.963135 
	C696.366882,1306.939941 700.164612,1306.798950 704.097046,1310.619629 
	C717.809631,1323.942383 731.491211,1337.297363 745.147705,1350.677612 
	C749.360962,1354.805664 749.238159,1356.106567 745.035889,1360.468506 
	C728.551636,1377.579590 712.103088,1394.724976 695.640686,1411.857056 
	C687.396179,1420.436890 679.162659,1429.027222 670.902954,1437.592285 
	C652.476868,1456.699585 634.028625,1475.785645 615.607727,1494.897949 
	C607.995056,1502.796509 600.470459,1510.780151 592.827332,1518.648926 
	C588.012512,1523.606079 587.026611,1523.525757 581.971191,1518.479980 
	C578.669067,1515.184448 575.365845,1511.890137 572.049500,1508.609009 
	C571.827332,1508.389160 571.489319,1508.286377 570.827698,1507.920410 
	C569.624084,1509.044678 568.286499,1510.221924 567.028931,1511.479370 
	C515.299622,1563.197021 463.575745,1614.920166 411.855316,1666.646729 
	C399.859283,1678.644165 387.875488,1690.653809 375.889648,1702.661621 
	C365.713104,1712.856689 355.490601,1723.006714 345.383179,1733.270020 
	C336.096252,1742.700073 326.943848,1752.262451 317.699524,1761.734741 
	C317.147430,1762.300293 316.304718,1762.582275 315.251343,1763.090454 
	C308.747864,1762.774658 298.261597,1752.703125 297.871460,1746.505737 
z"/>
<path fill="#B2045A" opacity="1.000000" stroke="none" 
	d="
M1729.690063,1768.179688 
	C1728.685425,1767.477539 1728.111572,1766.652832 1727.421387,1765.940796 
	C1711.903442,1749.930542 1696.392212,1733.913452 1680.837280,1717.939087 
	C1670.416870,1707.237915 1659.879150,1696.650391 1649.485474,1685.923218 
	C1631.578979,1667.442383 1613.740479,1648.895630 1595.879395,1630.370728 
	C1578.213745,1612.048096 1560.569824,1593.704468 1542.888672,1575.396851 
	C1531.692627,1563.804077 1520.443726,1552.262573 1509.222778,1540.694092 
	C1497.714355,1528.829346 1486.194580,1516.975830 1474.725830,1505.072876 
	C1473.278320,1503.570557 1472.110229,1501.799072 1470.318237,1499.524658 
	C1466.385620,1503.688599 1462.936523,1507.520142 1459.289917,1511.153564 
	C1455.328735,1515.100586 1452.578613,1515.044922 1448.707275,1511.197998 
	C1394.256104,1457.091187 1339.808716,1402.980591 1285.366821,1348.864258 
	C1280.757690,1344.282715 1280.832275,1340.634399 1285.315186,1336.176514 
	C1298.233154,1323.330444 1311.122437,1310.455200 1323.965576,1297.534302 
	C1328.907471,1292.562500 1330.963867,1292.461304 1335.924683,1297.421387 
	C1381.176880,1342.668579 1426.406494,1387.938232 1471.691895,1433.152100 
	C1480.784912,1442.230591 1490.071655,1451.115234 1499.297729,1460.060059 
	C1503.070312,1463.717407 1502.914795,1467.833374 1498.773071,1471.691040 
	C1495.152222,1475.063477 1491.543579,1478.448853 1487.900513,1481.856079 
	C1494.604126,1489.101318 1500.684692,1495.885986 1506.993286,1502.451294 
	C1525.207031,1521.405884 1543.481323,1540.302856 1561.796631,1559.159546 
	C1569.998535,1567.604126 1578.422974,1575.832764 1586.628418,1584.274048 
	C1605.519287,1603.708252 1624.337402,1623.213013 1643.186035,1642.688354 
	C1663.323364,1663.495239 1683.485352,1684.278442 1703.591553,1705.115234 
	C1717.976807,1720.023438 1732.288086,1735.002808 1746.951416,1750.143311 
	C1746.510254,1758.739380 1737.795166,1767.743042 1729.690063,1768.179688 
z"/>
<path fill="#DD2377" opacity="1.000000" stroke="none" 
	d="
M300.494049,298.957214 
	C302.214111,300.424591 303.481049,301.963776 304.883942,303.367035 
	C366.264191,364.762604 427.636292,426.166351 489.068665,487.509735 
	C498.484833,496.912201 508.277222,505.937134 517.733948,515.299927 
	C532.164368,529.586975 546.450684,544.019531 560.809021,558.379456 
	C561.976624,559.547241 563.227661,560.631592 564.896606,562.177734 
	C568.526245,558.357483 572.027771,554.565063 575.648254,550.889709 
	C579.820496,546.654236 582.181152,546.699402 586.453796,550.970703 
	C628.643433,593.146851 670.802429,635.353577 713.029236,677.492554 
	C722.413635,686.857422 732.007080,696.013672 741.549011,705.219543 
	C746.193054,709.700012 746.286072,713.214050 741.673035,717.828308 
	C728.595764,730.908936 715.516907,743.987976 702.426270,757.055237 
	C698.162842,761.310974 695.878418,761.288574 691.605957,757.098999 
	C677.213135,742.985107 662.713806,728.978333 648.430237,714.754883 
	C610.756042,677.239563 573.169739,639.635986 535.561157,602.054810 
	C531.603699,598.100220 531.614197,594.949890 535.500610,590.997864 
	C538.771667,587.671570 542.080261,584.382141 545.357727,581.062134 
	C545.577209,580.839905 545.674500,580.497070 547.039917,579.014954 
	C543.776550,576.233704 540.306091,573.659912 537.280518,570.640320 
	C481.610443,515.080627 426.031586,459.429443 370.344330,403.886993 
	C351.744415,385.335449 332.829773,367.099762 314.189545,348.588226 
	C305.098175,339.559601 296.326263,330.209778 287.355194,321.058899 
	C286.218201,319.899139 284.748871,319.065216 283.101593,317.917694 
	C281.936676,310.264984 288.636383,307.693146 292.364014,303.218689 
	C294.316010,300.875641 296.298615,298.135742 300.494049,298.957214 
z"/>
<path fill="#FF4B97" opacity="1.000000" stroke="none" 
	d="
M1764.987183,315.552124 
	C1763.615479,317.164398 1762.217407,318.333282 1760.918091,319.603088 
	C1742.584106,337.518463 1724.260864,355.444702 1705.940918,373.374298 
	C1692.183350,386.838593 1678.504272,400.384003 1664.660767,413.759338 
	C1651.905396,426.083344 1638.871338,438.119720 1626.155884,450.484222 
	C1613.811890,462.487640 1601.824585,474.858002 1589.482666,486.863617 
	C1576.134766,499.847839 1562.513062,512.549927 1549.100464,525.468201 
	C1542.621216,531.708679 1536.135742,537.966736 1530.030762,544.566101 
	C1521.238892,554.069580 1512.791260,563.891479 1504.196777,573.577515 
	C1503.582031,572.904846 1502.967285,572.232178 1502.352661,571.559448 
	C1506.055298,575.356873 1509.751099,579.161072 1513.462646,582.949768 
	C1517.120239,586.683289 1517.162720,590.309937 1513.397217,594.089905 
	C1496.582886,610.969482 1479.686279,627.767395 1462.912109,644.686646 
	C1437.742065,670.074524 1412.619995,695.509949 1387.539673,720.986328 
	C1377.882080,730.796326 1368.366577,740.746704 1358.847046,750.691162 
	C1356.024536,753.639709 1353.498901,753.995056 1350.408569,750.949219 
	C1336.320435,737.064270 1322.114868,723.298706 1307.986572,709.454346 
	C1303.660889,705.215637 1303.697632,703.864136 1307.836914,699.671082 
	C1335.894409,671.249146 1363.957886,642.833313 1392.003540,614.399658 
	C1411.807495,594.321655 1431.588135,574.220520 1451.374512,554.125183 
	C1455.243286,550.195923 1459.277100,546.407837 1462.890747,542.255310 
	C1465.985596,538.699097 1468.724487,539.181030 1471.618652,542.144104 
	C1475.561157,546.180298 1479.422852,550.295410 1483.615112,554.687012 
	C1490.398438,548.066467 1496.640503,541.920898 1502.941040,535.835876 
	C1516.043701,523.181335 1529.183228,510.564819 1542.295166,497.919708 
	C1546.194092,494.159668 1550.056519,490.361572 1553.926880,486.571991 
	C1586.837891,454.348297 1619.739380,422.114929 1652.660034,389.901154 
	C1666.539917,376.319366 1680.454956,362.773468 1694.361328,349.218719 
	C1706.142944,337.735046 1717.911011,326.237518 1729.732544,314.795166 
	C1735.389404,309.319794 1741.156128,303.958038 1746.998779,298.218689 
	C1750.932251,297.728882 1753.900513,298.686890 1756.090820,302.357117 
	C1757.653198,304.974854 1760.662354,306.688599 1762.542725,309.171509 
	C1763.802124,310.834473 1764.214966,313.138519 1764.987183,315.552124 
z"/>
<path fill="#DD2377" opacity="1.000000" stroke="none" 
	d="
M709.000000,1200.000000 
	C709.000000,1068.219238 709.000000,936.938477 709.000000,805.307373 
	C759.324829,805.307373 809.220398,805.307373 859.871216,805.307373 
	C859.871216,807.125366 859.871216,808.888977 859.871216,810.652527 
	C859.871216,950.965271 859.841248,1091.277954 859.990051,1231.590576 
	C859.995544,1236.773560 858.497559,1237.935791 853.534302,1237.915894 
	C807.375122,1237.731201 761.214966,1237.806641 715.055054,1237.806641 
	C713.260742,1237.806641 711.466492,1237.806641 709.000000,1237.806641 
	C709.000000,1225.033203 709.000000,1212.766602 709.000000,1200.000000 
z"/>
<path fill="#FF4B97" opacity="1.000000" stroke="none" 
	d="
M1318.866089,866.131531 
	C1324.763428,869.560486 1330.325806,872.839966 1336.202026,876.304443 
	C1311.123047,919.749329 1286.225220,962.880432 1261.005981,1006.568298 
	C1137.865845,935.474365 1015.000244,864.539062 891.784973,793.401733 
	C916.909485,749.889465 941.893005,706.621460 967.052734,663.048157 
	C1084.507568,730.863342 1201.519287,798.422668 1318.866089,866.131531 
z"/>
<path fill="#B2045A" opacity="1.000000" stroke="none" 
	d="
M954.374023,1357.604248 
	C933.486084,1321.414551 912.796753,1285.533569 891.848572,1249.203735 
	C1014.939575,1178.136719 1137.688477,1107.267212 1260.987793,1036.079834 
	C1286.041992,1079.467651 1310.973999,1122.643921 1336.228638,1166.378906 
	C1213.249268,1237.384277 1090.518433,1308.246216 967.118164,1379.494507 
	C962.846069,1372.145386 958.709290,1365.029175 954.374023,1357.604248 
z"/>
</svg>
